<svg width="375" height="812" viewBox="0 0 375 812" fill="none" xmlns="http://www.w3.org/2000/svg">
<g clip-path="url(#clip0_)">
<rect width="375" height="812" fill="#202024"/>
<circle cx="278" cy="99" r="300" transform="rotate(-180 278 99)" fill="url(#paint0_radial_)"/>
<circle cx="98" cy="99" r="300" transform="rotate(-180 98 99)" fill="url(#paint1_radial_)"/>
<mask id="mask0_" style="mask-type:alpha" maskUnits="userSpaceOnUse" x="0" y="0" width="375" height="812">
<rect width="375" height="812" fill="#202024"/>
</mask>
<g mask="url(#mask0_)">
<path d="M375.045 168.101V-310.699L187.522 -418.486L0 -310.699V168.101L187.522 275.894L375.045 168.101Z" fill="url(#paint2_linear_)"/>
<g style="mix-blend-mode:luminosity" opacity="0.4">
<path d="M1.88131 61.3931V168.797L95.1722 222.505L188.463 168.797V61.3931L95.1722 7.68577L1.88131 61.3931Z" fill="url(#paint3_linear_)"/>
<path d="M1.88131 -46.0166V61.3877L95.1722 115.095L188.463 61.3877V-46.0166L95.1722 -99.7239L1.88131 -46.0166Z" fill="url(#paint4_linear_)"/>
<path d="M281.754 -99.6961V7.70821L188.463 61.4155L95.1721 7.70821V-99.6961L188.463 -153.403L281.754 -99.6961Z" fill="url(#paint5_linear_)"/>
<path d="M188.463 168.797V61.3927L281.754 7.68539L375.045 61.3927V168.797L281.754 222.504L188.463 168.797Z" fill="url(#paint6_linear_)"/>
<path d="M375.045 -46.0166V61.3877L281.754 115.095L188.463 61.3877V-46.0166L281.754 -99.7239L375.045 -46.0166Z" fill="url(#paint7_linear_)"/>
<path d="M281.754 222.527V115.123L188.463 61.4155L95.1721 115.123L95.1721 222.527L188.463 276.235L281.754 222.527Z" fill="url(#paint8_linear_)"/>
</g>
</g>
</g>
<defs>
<radialGradient id="paint0_radial_" cx="0" cy="0" r="1" gradientUnits="userSpaceOnUse" gradientTransform="translate(278 99) rotate(90) scale(300)">
<stop stop-color="#1200E3"/>
<stop offset="1" stop-color="#060699" stop-opacity="0"/>
</radialGradient>
<radialGradient id="paint1_radial_" cx="0" cy="0" r="1" gradientUnits="userSpaceOnUse" gradientTransform="translate(98 99) rotate(90) scale(300)">
<stop stop-color="#BE0294"/>
<stop offset="1" stop-color="#760B7F" stop-opacity="0"/>
</radialGradient>
<linearGradient id="paint2_linear_" x1="-67.905" y1="58.9385" x2="436.159" y2="232.357" gradientUnits="userSpaceOnUse">
<stop stop-color="#F30072"/>
<stop offset="1" stop-color="#100CF1"/>
</linearGradient>
<linearGradient id="paint3_linear_" x1="95.1722" y1="217.565" x2="2.28301" y2="59.047" gradientUnits="userSpaceOnUse">
<stop stop-color="#440AC9"/>
<stop offset="1" stop-color="#FF008E" stop-opacity="0"/>
</linearGradient>
<linearGradient id="paint4_linear_" x1="95.1722" y1="110.155" x2="2.28299" y2="-48.3627" gradientUnits="userSpaceOnUse">
<stop stop-color="#440AC9"/>
<stop offset="1" stop-color="#FF008E" stop-opacity="0"/>
</linearGradient>
<linearGradient id="paint5_linear_" x1="95.1722" y1="-105.732" x2="281.466" y2="6.68569" gradientUnits="userSpaceOnUse">
<stop stop-color="#5B0033" stop-opacity="0"/>
<stop offset="1" stop-color="#4946F7"/>
</linearGradient>
<linearGradient id="paint6_linear_" x1="375.045" y1="174.833" x2="188.751" y2="62.4152" gradientUnits="userSpaceOnUse">
<stop stop-color="#5B0033" stop-opacity="0"/>
<stop offset="1" stop-color="#4946F7"/>
</linearGradient>
<linearGradient id="paint7_linear_" x1="281.754" y1="110.155" x2="374.643" y2="-48.3627" gradientUnits="userSpaceOnUse">
<stop stop-color="#440AC9"/>
<stop offset="1" stop-color="#FF008E" stop-opacity="0"/>
</linearGradient>
<linearGradient id="paint8_linear_" x1="188.463" y1="66.3552" x2="281.352" y2="224.873" gradientUnits="userSpaceOnUse">
<stop stop-color="#440AC9"/>
<stop offset="1" stop-color="#FF008E" stop-opacity="0"/>
</linearGradient>
<clipPath id="clip0_">
<rect width="375" height="812" fill="white"/>
</clipPath>
</defs>
</svg>
